<svg xmlns="http://www.w3.org/2000/svg" xmlns:xlink="http://www.w3.org/1999/xlink" viewBox="0 0 324.96 289.35"><defs><style>.cls-1{isolation:isolate;}.cls-2{fill:url(#Áåçûìÿííûé_ãðàäèåíò_13);}.cls-3{fill:url(#Áåçûìÿííûé_ãðàäèåíò_5);}.cls-4{fill:url(#Áåçûìÿííûé_ãðàäèåíò_2);}.cls-5{fill:url(#Áåçûìÿííûé_ãðàäèåíò_2-2);}.cls-6{fill:url(#Áåçûìÿííûé_ãðàäèåíò_2-3);}.cls-7{fill:url(#Áåçûìÿííûé_ãðàäèåíò_10);}.cls-11,.cls-8{mix-blend-mode:screen;}.cls-8{fill:url(#Áåçûìÿííûé_ãðàäèåíò_11);}.cls-9{fill:#fff;}.cls-10{fill:url(#Áåçûìÿííûé_ãðàäèåíò_10-2);}.cls-11{fill:url(#Áåçûìÿííûé_ãðàäèåíò_11-2);}.cls-12{fill:url(#Áåçûìÿííûé_ãðàäèåíò_10-3);}.cls-13{fill:url(#Áåçûìÿííûé_ãðàäèåíò_2-4);}.cls-14{fill:url(#Áåçûìÿííûé_ãðàäèåíò_9);}.cls-15{fill:url(#Áåçûìÿííûé_ãðàäèåíò_8);}.cls-16{fill:url(#Áåçûìÿííûé_ãðàäèåíò_2-5);}.cls-17{fill:url(#Áåçûìÿííûé_ãðàäèåíò_7);}.cls-18{fill:url(#Áåçûìÿííûé_ãðàäèåíò_5-2);}.cls-19{mix-blend-mode:soft-light;fill:url(#Áåçûìÿííûé_ãðàäèåíò_4);}.cls-20{fill:url(#Áåçûìÿííûé_ãðàäèåíò_3);}.cls-21{fill:url(#Áåçûìÿííûé_ãðàäèåíò_2-6);}.cls-22{fill:url(#Áåçûìÿííûé_ãðàäèåíò_2-7);}.cls-23{fill:url(#Áåçûìÿííûé_ãðàäèåíò_2-8);}.cls-24{fill:url(#Áåçûìÿííûé_ãðàäèåíò_2-9);}.cls-25{fill:url(#Áåçûìÿííûé_ãðàäèåíò_2-10);}.cls-26{fill:url(#Áåçûìÿííûé_ãðàäèåíò_2-11);}</style><linearGradient id="Áåçûìÿííûé_ãðàäèåíò_13" x1="206.7" y1="212.99" x2="219.56" y2="247.89" gradientUnits="userSpaceOnUse"><stop offset="0" stop-color="#fcf"/><stop offset="0.15" stop-color="#fcf"/><stop offset="1" stop-color="#fcf"/></linearGradient><linearGradient id="Áåçûìÿííûé_ãðàäèåíò_5" x1="149.25" y1="263.01" x2="228.15" y2="182.07" gradientTransform="translate(521.19 134.59) rotate(83.59)" gradientUnits="userSpaceOnUse"><stop offset="0.04" stop-color="#c39"/><stop offset="1" stop-color="#9cf"/></linearGradient><linearGradient id="Áåçûìÿííûé_ãðàäèåíò_2" x1="238.28" y1="26.1" x2="252.97" y2="23.96" gradientUnits="userSpaceOnUse"><stop offset="0.04" stop-color="#f39"/><stop offset="1" stop-color="#9cf"/></linearGradient><linearGradient id="Áåçûìÿííûé_ãðàäèåíò_2-2" x1="234.53" y1="63.42" x2="260.61" y2="33.97" xlink:href="#Áåçûìÿííûé_ãðàäèåíò_2"/><linearGradient id="Áåçûìÿííûé_ãðàäèåíò_2-3" x1="196.75" y1="165.42" x2="300.1" y2="62.07" xlink:href="#Áåçûìÿííûé_ãðàäèåíò_2"/><linearGradient id="Áåçûìÿííûé_ãðàäèåíò_10" x1="331.75" y1="261.25" x2="332.67" y2="219.92" gradientUnits="userSpaceOnUse"><stop offset="0" stop-color="#030d14"/><stop offset="1" stop-color="#303"/></linearGradient><radialGradient id="Áåçûìÿííûé_ãðàäèåíò_11" cx="224" cy="105.78" r="17.18" gradientUnits="userSpaceOnUse"><stop offset="0.13" stop-color="#f66"/><stop offset="1"/></radialGradient><linearGradient id="Áåçûìÿííûé_ãðàäèåíò_10-2" x1="213.53" y1="105.78" x2="234.46" y2="105.78" xlink:href="#Áåçûìÿííûé_ãðàäèåíò_10"/><radialGradient id="Áåçûìÿííûé_ãðàäèåíò_11-2" cx="270.89" cy="105.78" r="17.18" xlink:href="#Áåçûìÿííûé_ãðàäèåíò_11"/><linearGradient id="Áåçûìÿííûé_ãðàäèåíò_10-3" x1="260.43" y1="105.78" x2="281.36" y2="105.78" xlink:href="#Áåçûìÿííûé_ãðàäèåíò_10"/><linearGradient id="Áåçûìÿííûé_ãðàäèåíò_2-4" x1="318.81" y1="142.85" x2="338.26" y2="140.01" xlink:href="#Áåçûìÿííûé_ãðàäèåíò_2"/><linearGradient id="Áåçûìÿííûé_ãðàäèåíò_9" x1="331.4" y1="277.3" x2="361.32" y2="247.38" gradientUnits="userSpaceOnUse"><stop offset="0.07" stop-color="#939"/><stop offset="1" stop-color="#9cf"/></linearGradient><linearGradient id="Áåçûìÿííûé_ãðàäèåíò_8" x1="303.14" y1="368.11" x2="382.42" y2="275.53" gradientUnits="userSpaceOnUse"><stop offset="0.04" stop-color="#f39"/><stop offset="0.09" stop-color="#f842a8"/><stop offset="0.22" stop-color="#e568ce"/><stop offset="0.35" stop-color="#d783e9"/><stop offset="0.46" stop-color="#cf93f9"/><stop offset="0.54" stop-color="#c9f"/><stop offset="0.94" stop-color="#a0c5ff"/><stop offset="1" stop-color="#9cf"/></linearGradient><linearGradient id="Áåçûìÿííûé_ãðàäèåíò_2-5" x1="298.94" y1="321.95" x2="346.61" y2="266.28" xlink:href="#Áåçûìÿííûé_ãðàäèåíò_2"/><linearGradient id="Áåçûìÿííûé_ãðàäèåíò_7" x1="313.71" y1="360.32" x2="378.93" y2="326.33" gradientTransform="matrix(-0.99, -0.15, -0.15, 0.99, 765.74, 45.29)" gradientUnits="userSpaceOnUse"><stop offset="0.04" stop-color="#f39"/><stop offset="0.22" stop-color="#e856b0"/><stop offset="0.59" stop-color="#be95da"/><stop offset="0.86" stop-color="#a3bdf5"/><stop offset="1" stop-color="#9cf"/></linearGradient><linearGradient id="Áåçûìÿííûé_ãðàäèåíò_5-2" x1="349.07" y1="350.07" x2="391.13" y2="328.15" gradientTransform="matrix(1, 0, 0, 1, 0, 0)" xlink:href="#Áåçûìÿííûé_ãðàäèåíò_5"/><radialGradient id="Áåçûìÿííûé_ãðàäèåíò_4" cx="332.94" cy="296.64" r="48.49" gradientTransform="translate(-86.22 146.36) scale(1.01 0.41)" gradientUnits="userSpaceOnUse"><stop offset="0" stop-color="#ccc"/><stop offset="1" stop-color="#fff"/></radialGradient><linearGradient id="Áåçûìÿííûé_ãðàäèåíò_3" y1="47.46" x2="161.97" y2="47.46" gradientUnits="userSpaceOnUse"><stop offset="0" stop-color="#fcf"/><stop offset="0.51" stop-color="#fff"/><stop offset="1" stop-color="#fcf"/></linearGradient><linearGradient id="Áåçûìÿííûé_ãðàäèåíò_2-6" x1="108.95" y1="187.1" x2="239.69" y2="159.34" gradientTransform="translate(-8.11 5.78) rotate(-2.63)" xlink:href="#Áåçûìÿííûé_ãðàäèåíò_2"/><linearGradient id="Áåçûìÿííûé_ãðàäèåíò_2-7" x1="111.16" y1="197.51" x2="241.9" y2="169.74" gradientTransform="translate(-8.11 5.78) rotate(-2.63)" xlink:href="#Áåçûìÿííûé_ãðàäèåíò_2"/><linearGradient id="Áåçûìÿííûé_ãðàäèåíò_2-8" x1="110.91" y1="196.36" x2="241.66" y2="168.6" gradientTransform="translate(-8.11 5.78) rotate(-2.63)" xlink:href="#Áåçûìÿííûé_ãðàäèåíò_2"/><linearGradient id="Áåçûìÿííûé_ãðàäèåíò_2-9" x1="111.48" y1="199.02" x2="242.22" y2="171.26" gradientTransform="translate(-8.11 5.78) rotate(-2.63)" xlink:href="#Áåçûìÿííûé_ãðàäèåíò_2"/><linearGradient id="Áåçûìÿííûé_ãðàäèåíò_2-10" x1="113.27" y1="207.48" x2="244.02" y2="179.72" gradientTransform="translate(-8.11 5.78) rotate(-2.63)" xlink:href="#Áåçûìÿííûé_ãðàäèåíò_2"/><linearGradient id="Áåçûìÿííûé_ãðàäèåíò_2-11" x1="113.08" y1="206.54" x2="243.82" y2="178.78" gradientTransform="translate(-8.11 5.78) rotate(-2.63)" xlink:href="#Áåçûìÿííûé_ãðàäèåíò_2"/></defs><g class="cls-1"><g id="Ñëîé_5" data-name="Ñëîé 5"><path class="cls-2" d="M226.21,215.29s2.07,28,13.71,34.55c0,0-37.36-6.45-46.54-20.44S226.21,215.29,226.21,215.29Z" transform="translate(-83.77 -134.49)"/><path class="cls-3" d="M263.41,297.77c23,6.31,28.46,4.54,32.56,10.71a14.1,14.1,0,0,1,2.39,9,13.28,13.28,0,0,1-3.74,7.81c-7.89,7.64-29.58-1.7-42-11.92-2.71-2.22-10-8.2-8.51-12.44.6-1.74,2.46-2.6,3.8-3.2C253.81,295.07,259.94,296.82,263.41,297.77Z" transform="translate(-83.77 -134.49)"/><rect class="cls-4" x="245.81" y="8.57" width="4.9" height="32.15"/><rect class="cls-5" x="226.83" y="37.35" width="42.87" height="21.13" rx="4.52"/><path class="cls-6" d="M234.48,47.46H262A62.92,62.92,0,0,1,325,110.38v18.37a35.36,35.36,0,0,1-35.36,35.36H206.93a35.36,35.36,0,0,1-35.36-35.36V110.38A62.92,62.92,0,0,1,234.48,47.46Z"/><path class="cls-7" d="M384.6,259.89h0a14.85,14.85,0,0,1-6.55,1.51H286a14.77,14.77,0,0,1-6.54-1.51h0a12.11,12.11,0,0,1-7-12.41l.05-.37c2.36-17.1,17.85-30.24,36.83-31.23,8-.42,16.47-.63,25.26-.58q10.34.06,20,.57c19,1,34.65,14.08,37,31.24l.05.37A12.1,12.1,0,0,1,384.6,259.89Z" transform="translate(-83.77 -134.49)"/><circle class="cls-8" cx="224" cy="105.78" r="17.36"/><circle class="cls-9" cx="224" cy="105.78" r="12.46"/><circle class="cls-10" cx="224" cy="105.78" r="10.46"/><path class="cls-9" d="M314.47,237.56a3.88,3.88,0,1,1-3.88-3.88A3.88,3.88,0,0,1,314.47,237.56Z" transform="translate(-83.77 -134.49)"/><circle class="cls-9" cx="222.45" cy="113.81" r="1.55"/><path class="cls-9" d="M302.38,246a.77.77,0,1,1-.77-.78A.77.77,0,0,1,302.38,246Z" transform="translate(-83.77 -134.49)"/><circle class="cls-11" cx="270.89" cy="105.78" r="17.36"/><circle class="cls-9" cx="270.89" cy="105.78" r="12.46"/><circle class="cls-12" cx="270.89" cy="105.78" r="10.46"/><path class="cls-9" d="M361.36,237.56a3.88,3.88,0,1,1-3.88-3.88A3.88,3.88,0,0,1,361.36,237.56Z" transform="translate(-83.77 -134.49)"/><circle class="cls-9" cx="269.34" cy="113.81" r="1.55"/><path class="cls-9" d="M349.28,246a.78.78,0,0,1-.78.77.78.78,0,0,1,0-1.55A.78.78,0,0,1,349.28,246Z" transform="translate(-83.77 -134.49)"/><path class="cls-13" d="M338.3,140.92a6.28,6.28,0,1,1-6.27-6.28A6.27,6.27,0,0,1,338.3,140.92Z" transform="translate(-83.77 -134.49)"/><path class="cls-9" d="M336.39,138.47a1.92,1.92,0,1,1-1.91-1.91A1.91,1.91,0,0,1,336.39,138.47Z" transform="translate(-83.77 -134.49)"/><path class="cls-9" d="M386.07,202.07c.08,2.93-2.31,6.44-5.05,6.74-2.57.28-4.62-2.35-6.73-5.05s-6.65-9.52-4.83-11.46C371.85,189.74,385.87,195.16,386.07,202.07Z" transform="translate(-83.77 -134.49)"/><circle class="cls-9" cx="278.84" cy="54.23" r="2.18"/><path class="cls-9" d="M385.76,242.72c-.7.49-5.58-9.45-18.68-18.07-4.6-3-9.15-5.18-8.88-5.81s5.4.55,9.5,2.45C380.75,227.34,386.59,242.13,385.76,242.72Z" transform="translate(-83.77 -134.49)"/><path class="cls-9" d="M352.22,178.1c-.16,0-.26-.9-1-2.32a13.84,13.84,0,0,0-.76-1.22c-1.32-1.81-5.78-1.77-6.13-1.77-6.94.06-11.4-.38-11.4-.34s3.25,0,5.64-.08c6.73-.13,10.74-.49,12.46,1.31a5.74,5.74,0,0,1,1.07,1.72C352.57,176.72,352.41,178.07,352.22,178.1Z" transform="translate(-83.77 -134.49)"/><path class="cls-9" d="M350.78,268.85a3.55,3.55,0,0,1-3.22,3.1l-23,2.22a3.55,3.55,0,0,1-3.75-2.43,16,16,0,0,1-.49-2.2.76.76,0,0,1,.68-.88l29-2.8a.77.77,0,0,1,.83.72A17.12,17.12,0,0,1,350.78,268.85Z" transform="translate(-83.77 -134.49)"/><path class="cls-14" d="M350.78,268.85A15.36,15.36,0,0,1,320.91,272a3.56,3.56,0,0,0,3.65,2.15l23-2.22A3.56,3.56,0,0,0,350.78,268.85Z" transform="translate(-83.77 -134.49)"/><path class="cls-15" d="M387,320.49v.61a14.37,14.37,0,0,1-.75,4c-6.33,19.33-10.12,29.53-15.44,37.78-.92,1.42-1.88,2.79-2.92,4.13-1.36,1.79-2.85,3.54-4.5,5.34-3.67,4-9.23,5.8-11,6.43-6.55,2.31-12.34,1.89-16.19,1.93h-.67c-3.86,0-9.63.38-16.18-1.93-1.79-.63-7.36-2.44-11-6.43-10.11-11-14-20.14-22.87-47.25a14.14,14.14,0,0,1-.73-3.78,13.88,13.88,0,0,1,0-1.58,16.44,16.44,0,0,1,3.84-9.32,21.27,21.27,0,0,1,16.55-7.73l30.76-.13,30.2-.12a21.82,21.82,0,0,1,17,7.75,16.83,16.83,0,0,1,3.74,7.8c.07.39.12.78.16,1.17S387,320.05,387,320.49Z" transform="translate(-83.77 -134.49)"/><path class="cls-16" d="M335.85,302.59l-30.76.13a21.29,21.29,0,0,0-16.56,7.74,16.42,16.42,0,0,0-3.83,9.32,16.23,16.23,0,0,1,3.95-9.55,21.81,21.81,0,0,1,17-7.76Z" transform="translate(-83.77 -134.49)"/><path class="cls-17" d="M366.42,347.91c-.45-23.86-3.68-28.58,1.09-34.25a14,14,0,0,1,7.93-4.83,13.32,13.32,0,0,1,8.55,1.38c9.55,5.41,6.72,28.86.43,43.66-1.37,3.23-5.05,11.89-9.54,11.68-1.83-.08-3.19-1.62-4.14-2.74C366.54,357.89,366.49,351.51,366.42,347.91Z" transform="translate(-83.77 -134.49)"/><path class="cls-18" d="M370.81,362.91c-.92,1.42-1.88,2.79-2.92,4.13-.33-.34-.62-.68-.89-1-4.21-4.92-4.25-11.3-4.32-14.9-.45-23.86-3.68-28.57,1.09-34.25a14.88,14.88,0,0,1,3.7-3.2c-4.71,5.66-1.5,10.42-1.05,34.21.06,3.6.12,10,4.32,14.91A.22.22,0,0,1,370.81,362.91Z" transform="translate(-83.77 -134.49)"/><path class="cls-9" d="M384.28,328a40,40,0,0,0-1.58-8.22c-1.26-4.93-2.84-7.34-1.81-8.29.66-.62,2-.2,2.28-.11,4.51,1.44,5.9,9.9,5.71,15.2-.12,3.24-.91,6.87-2.1,7a1.37,1.37,0,0,1-1-.3C384.47,332.18,384.38,330,384.28,328Z" transform="translate(-83.77 -134.49)"/><path class="cls-9" d="M387.37,337.09a.94.94,0,1,1-.93-.93A.94.94,0,0,1,387.37,337.09Z" transform="translate(-83.77 -134.49)"/><ellipse class="cls-19" cx="250.71" cy="269.26" rx="49.07" ry="20.09"/><rect class="cls-20" width="161.97" height="94.91" rx="47.46"/><path class="cls-21" d="M134.67,200.11c0,.54-1.58.89-4.82,1s-4.88-.05-4.91-.6l-.51-11.08-6.74.31.51,11.08q0,.82-4.83,1c-3.24.14-4.88,0-4.9-.6L107,169.37c0-.67,1.57-1.08,4.82-1.23s4.88.11,4.91.78l.52,11.32,6.74-.31-.51-11.22c0-.45.77-.81,2.36-1.07q1.25-.16,2.46-.21l2.46,0c1.61.12,2.43.4,2.45.85Z" transform="translate(-83.77 -134.49)"/><path class="cls-22" d="M157.44,198.58a15.36,15.36,0,0,1-7.73,2.14,11,11,0,0,1-8.19-2.88q-3.42-3.1-3.69-8.86a13.34,13.34,0,0,1,2.73-9.42,10.24,10.24,0,0,1,7.81-3.88q4.81-.23,7.56,2.11a7.92,7.92,0,0,1,2.9,5.85q.36,7.81-8.6,8.22l-3.33.15a2.29,2.29,0,0,0,.89,2,4.08,4.08,0,0,0,2.36.44,14,14,0,0,0,6.34-1.83s.18.18.46.65a7.71,7.71,0,0,1,1.32,3.44A1.86,1.86,0,0,1,157.44,198.58Zm-6.66-13.65a1.77,1.77,0,0,0-2.07-1.93,2.37,2.37,0,0,0-1.54.62,2,2,0,0,0-.58,1.65l.07,1.49,2.6-.12A1.43,1.43,0,0,0,150.78,184.93Z" transform="translate(-83.77 -134.49)"/><path class="cls-23" d="M171.45,198.85q0,.43-4.89.66c-2.58.08-3.87,0-3.88-.21l-1.5-32.81c0-.48,1.52-.79,4.64-.93,2.73,0,4.1.07,4.11.29Z" transform="translate(-83.77 -134.49)"/><path class="cls-24" d="M184.55,198.25q0,.44-4.89.66-3.85.12-3.87-.21l-1.51-32.81c0-.48,1.52-.79,4.64-.93,2.73,0,4.1.06,4.11.29Z" transform="translate(-83.77 -134.49)"/><path class="cls-25" d="M190.87,195.49q-3.17-3.18-3.44-9.06t2.59-9.34a11.57,11.57,0,0,1,16.21-.74q3.15,3.18,3.41,9.06t-2.56,9.34a11.54,11.54,0,0,1-16.21.74Zm7.51-14.05q-2.72.12-2.52,4.56c.14,2.95,1.11,4.39,2.93,4.3s2.65-1.6,2.52-4.55S200.2,181.36,198.38,181.44Z" transform="translate(-83.77 -134.49)"/><path class="cls-26" d="M213.28,190.07q0-.33,4.44-.54c3-.14,4.46-.11,4.47.08l.32,6.94c0,.32-1.46.55-4.43.69s-4.46.11-4.47-.09Zm7.82-3.25c0,.19-1.14.34-3.43.44s-3.45.08-3.46-.08l-2.05-23.7c0-.26,1.45-.46,4.39-.59s4.41-.09,4.42.13Z" transform="translate(-83.77 -134.49)"/><path class="cls-9" d="M219.87,182.22s-1.89-17.2-1-17.67S220.31,173.47,219.87,182.22Z" transform="translate(-83.77 -134.49)"/><path class="cls-9" d="M221.76,190.9a1,1,0,1,1-1-1A1,1,0,0,1,221.76,190.9Z" transform="translate(-83.77 -134.49)"/><path class="cls-9" d="M208.22,183.37a8.8,8.8,0,0,0-2.09-5.91,6.77,6.77,0,0,0-5-2.41c-.2,0-.87.14-.91.42-.09.58,2.65,1,4.7,2.53A9.49,9.49,0,0,1,208.22,183.37Z" transform="translate(-83.77 -134.49)"/><path class="cls-9" d="M181.5,165.56c1.06,0,1.46,19.28,1.15,22.76S181.08,165.56,181.5,165.56Z" transform="translate(-83.77 -134.49)"/><path class="cls-9" d="M157.64,182.07c-.46-2.61-3.44-5.53-5.3-5.08s2.21,1.87,3.66,3.13S157.64,182.07,157.64,182.07Z" transform="translate(-83.77 -134.49)"/><path class="cls-9" d="M141.33,196.93a8.52,8.52,0,0,0,5.28,2.75c0-.11-3.37-.56-5.17-3.31-.85-1.29-1.69-3.63-2.25-3.63a.06.06,0,0,0-.05,0C138.85,193,140,195.39,141.33,196.93Z" transform="translate(-83.77 -134.49)"/><path class="cls-9" d="M133.42,196.44c-.69.95-.78-23.39-1.22-25.77v-.16c0-.16,0-.47,0-1.09a1.66,1.66,0,0,0-.24-.72c-.9-.81-4.86-.4-3.17-.62a10.92,10.92,0,0,1,3.65.11c.19.06.2.44.25.58C133.52,173.59,134.34,195.19,133.42,196.44Z" transform="translate(-83.77 -134.49)"/><path class="cls-9" d="M239.79,170.18c-1.06.78-8.4-13.42-26.73-23.16-10.31-5.48-18.72-6.69-18.5-7.68.26-1.17,12.28-1.6,23.17,3.85C234.1,151.38,240.93,169.33,239.79,170.18Z" transform="translate(-83.77 -134.49)"/><circle class="cls-9" cx="157.39" cy="41.17" r="1.25"/><ellipse class="cls-9" cx="59.17" cy="5.06" rx="8.8" ry="2"/><path class="cls-9" d="M162.51,139.55c0,.6-1.06,1.09-2.38,1.09s-2.38-.49-2.38-1.09,1.06-1.08,2.38-1.08S162.51,139,162.51,139.55Z" transform="translate(-83.77 -134.49)"/><path class="cls-9" d="M116.36,174.86c.17,3.07.14,5.56-.06,5.57s-.52-2.46-.69-5.53-.15-5.56.06-5.57S116.19,171.79,116.36,174.86Z" transform="translate(-83.77 -134.49)"/><path class="cls-9" d="M228.4,235.53c1.43,4,2.93,6.36,2.58,6.58s-3-2.31-4.5-5.67c-2.67-5.87-1.23-12.23-.66-12.25S226,228.65,228.4,235.53Z" transform="translate(-83.77 -134.49)"/></g></g></svg>